<mxfile host="65bd71144e">
    <diagram id="THuYh-ym8cFt9KJ00TGt" name="Page-1">
        <mxGraphModel dx="2352" dy="2003" grid="1" gridSize="10" guides="1" tooltips="1" connect="1" arrows="1" fold="1" page="1" pageScale="1" pageWidth="850" pageHeight="1100" math="0" shadow="0">
            <root>
                <mxCell id="0"/>
                <mxCell id="1" parent="0"/>
                <mxCell id="L_pBXImfrmdXrkmZ3-33-18" value="" style="rounded=1;whiteSpace=wrap;html=1;shadow=1;sketch=0;strokeWidth=8;fillColor=none;strokeColor=#FFD966;dashed=1;" parent="1" vertex="1">
                    <mxGeometry x="30" width="1570" height="750" as="geometry"/>
                </mxCell>
                <mxCell id="cIkYoaAPw058XxT0Uyvx-30" value="" style="rounded=1;whiteSpace=wrap;html=1;shadow=1;sketch=0;strokeWidth=8;fillColor=none;strokeColor=#FFD966;" parent="1" vertex="1">
                    <mxGeometry x="370" y="130" width="1070" height="430" as="geometry"/>
                </mxCell>
                <mxCell id="5greAeXIB-viJ6H0r06e-43" style="edgeStyle=orthogonalEdgeStyle;rounded=0;jumpStyle=arc;orthogonalLoop=1;jettySize=auto;html=1;exitX=1;exitY=0.75;exitDx=0;exitDy=0;shadow=1;startArrow=none;startFill=0;strokeWidth=3;fontSize=14;fillColor=#fa6800;strokeColor=#C73500;entryX=0.867;entryY=0.499;entryDx=0;entryDy=0;entryPerimeter=0;" parent="1" source="cIkYoaAPw058XxT0Uyvx-26" target="cIkYoaAPw058XxT0Uyvx-54" edge="1">
                    <mxGeometry relative="1" as="geometry">
                        <mxPoint x="820" y="330" as="sourcePoint"/>
                        <mxPoint x="900" y="401" as="targetPoint"/>
                        <Array as="points">
                            <mxPoint x="772" y="336"/>
                            <mxPoint x="772" y="400"/>
                        </Array>
                    </mxGeometry>
                </mxCell>
                <mxCell id="cIkYoaAPw058XxT0Uyvx-34" style="edgeStyle=orthogonalEdgeStyle;rounded=0;orthogonalLoop=1;jettySize=auto;html=1;exitX=1;exitY=0.5;exitDx=0;exitDy=0;entryX=0;entryY=0.5;entryDx=0;entryDy=0;endArrow=block;endFill=0;strokeWidth=2;fillColor=#e51400;strokeColor=#B20000;" parent="1" source="cIkYoaAPw058XxT0Uyvx-13" target="5greAeXIB-viJ6H0r06e-1" edge="1">
                    <mxGeometry relative="1" as="geometry">
                        <mxPoint x="504.9999999999957" y="320" as="targetPoint"/>
                        <Array as="points">
                            <mxPoint x="20" y="290"/>
                            <mxPoint x="20" y="290"/>
                        </Array>
                    </mxGeometry>
                </mxCell>
                <mxCell id="cIkYoaAPw058XxT0Uyvx-10" style="edgeStyle=orthogonalEdgeStyle;rounded=0;orthogonalLoop=1;jettySize=auto;html=1;exitX=0.5;exitY=1;exitDx=0;exitDy=0;exitPerimeter=0;entryX=0.5;entryY=0;entryDx=0;entryDy=0;" parent="1" source="cIkYoaAPw058XxT0Uyvx-1" target="cIkYoaAPw058XxT0Uyvx-13" edge="1">
                    <mxGeometry relative="1" as="geometry">
                        <mxPoint x="-186" y="250" as="targetPoint"/>
                    </mxGeometry>
                </mxCell>
                <mxCell id="cIkYoaAPw058XxT0Uyvx-20" value="读取" style="edgeLabel;html=1;align=center;verticalAlign=middle;resizable=0;points=[];" parent="cIkYoaAPw058XxT0Uyvx-10" vertex="1" connectable="0">
                    <mxGeometry x="-0.3" relative="1" as="geometry">
                        <mxPoint y="4.71" as="offset"/>
                    </mxGeometry>
                </mxCell>
                <mxCell id="cIkYoaAPw058XxT0Uyvx-1" value="静态数据&lt;br&gt;Wall，PF" style="shape=cylinder3;whiteSpace=wrap;html=1;boundedLbl=1;backgroundOutline=1;size=15;" parent="1" vertex="1">
                    <mxGeometry x="-196" y="60" width="60" height="80" as="geometry"/>
                </mxCell>
                <mxCell id="cIkYoaAPw058XxT0Uyvx-11" style="edgeStyle=orthogonalEdgeStyle;rounded=0;orthogonalLoop=1;jettySize=auto;html=1;exitX=0.55;exitY=0.95;exitDx=0;exitDy=0;exitPerimeter=0;entryX=0;entryY=0.5;entryDx=0;entryDy=0;entryPerimeter=0;" parent="1" source="L_pBXImfrmdXrkmZ3-33-9" target="cIkYoaAPw058XxT0Uyvx-4" edge="1">
                    <mxGeometry relative="1" as="geometry">
                        <mxPoint x="-40" y="60" as="sourcePoint"/>
                    </mxGeometry>
                </mxCell>
                <mxCell id="cIkYoaAPw058XxT0Uyvx-9" style="edgeStyle=orthogonalEdgeStyle;rounded=0;orthogonalLoop=1;jettySize=auto;html=1;exitX=0.5;exitY=1;exitDx=0;exitDy=0;exitPerimeter=0;entryX=0.375;entryY=0;entryDx=0;entryDy=0;endArrow=block;endFill=1;startArrow=none;startFill=0;" parent="1" source="cIkYoaAPw058XxT0Uyvx-3" target="cIkYoaAPw058XxT0Uyvx-13" edge="1">
                    <mxGeometry relative="1" as="geometry">
                        <mxPoint x="-233.5" y="250" as="targetPoint"/>
                        <Array as="points">
                            <mxPoint x="-291" y="210"/>
                            <mxPoint x="-190" y="210"/>
                        </Array>
                    </mxGeometry>
                </mxCell>
                <mxCell id="cIkYoaAPw058XxT0Uyvx-3" value="Mapping File" style="shape=note;whiteSpace=wrap;html=1;backgroundOutline=1;darkOpacity=0.05;" parent="1" vertex="1">
                    <mxGeometry x="-331" y="40" width="80" height="100" as="geometry"/>
                </mxCell>
                <mxCell id="cIkYoaAPw058XxT0Uyvx-12" style="edgeStyle=orthogonalEdgeStyle;rounded=0;orthogonalLoop=1;jettySize=auto;html=1;exitX=1;exitY=0.5;exitDx=0;exitDy=0;exitPerimeter=0;entryX=0.625;entryY=0;entryDx=0;entryDy=0;" parent="1" source="cIkYoaAPw058XxT0Uyvx-4" target="cIkYoaAPw058XxT0Uyvx-13" edge="1">
                    <mxGeometry relative="1" as="geometry">
                        <mxPoint x="-138.5" y="250" as="targetPoint"/>
                        <Array as="points">
                            <mxPoint x="-40" y="220"/>
                            <mxPoint x="-142" y="220"/>
                        </Array>
                    </mxGeometry>
                </mxCell>
                <mxCell id="cIkYoaAPw058XxT0Uyvx-19" value="读取" style="edgeLabel;html=1;align=center;verticalAlign=middle;resizable=0;points=[];" parent="cIkYoaAPw058XxT0Uyvx-12" vertex="1" connectable="0">
                    <mxGeometry x="-0.4695" relative="1" as="geometry">
                        <mxPoint x="-0.05" y="-27.06" as="offset"/>
                    </mxGeometry>
                </mxCell>
                <mxCell id="cIkYoaAPw058XxT0Uyvx-4" value="MDSPlus DB &lt;br&gt;Plugin" style="shape=or;whiteSpace=wrap;html=1;rotation=0;direction=south;" parent="1" vertex="1">
                    <mxGeometry x="-80" y="100" width="80" height="60" as="geometry"/>
                </mxCell>
                <mxCell id="L_pBXImfrmdXrkmZ3-33-17" style="edgeStyle=orthogonalEdgeStyle;rounded=0;orthogonalLoop=1;jettySize=auto;html=1;exitX=1;exitY=0.25;exitDx=0;exitDy=0;entryX=0;entryY=0.5;entryDx=0;entryDy=0;strokeWidth=2;dashed=1;" parent="1" source="cIkYoaAPw058XxT0Uyvx-13" target="L_pBXImfrmdXrkmZ3-33-15" edge="1">
                    <mxGeometry relative="1" as="geometry">
                        <Array as="points">
                            <mxPoint x="10" y="276"/>
                            <mxPoint x="10" y="180"/>
                        </Array>
                    </mxGeometry>
                </mxCell>
                <mxCell id="cIkYoaAPw058XxT0Uyvx-13" value="&lt;font style=&quot;font-size: 25px&quot;&gt;Data Interface&lt;/font&gt;" style="shape=hexagon;perimeter=hexagonPerimeter2;whiteSpace=wrap;html=1;fixedSize=1;fillColor=none;strokeColor=#7EA6E0;strokeWidth=5;" parent="1" vertex="1">
                    <mxGeometry x="-261" y="260" width="190" height="60" as="geometry"/>
                </mxCell>
                <mxCell id="cIkYoaAPw058XxT0Uyvx-35" style="edgeStyle=orthogonalEdgeStyle;rounded=0;orthogonalLoop=1;jettySize=auto;html=1;exitX=1;exitY=0.5;exitDx=0;exitDy=0;entryX=0;entryY=0.5;entryDx=0;entryDy=0;endArrow=block;endFill=0;strokeWidth=4;fillColor=#e51400;strokeColor=#B20000;" parent="1" source="cIkYoaAPw058XxT0Uyvx-15" target="cIkYoaAPw058XxT0Uyvx-26" edge="1">
                    <mxGeometry relative="1" as="geometry">
                        <Array as="points">
                            <mxPoint x="680" y="320"/>
                            <mxPoint x="680" y="320"/>
                        </Array>
                    </mxGeometry>
                </mxCell>
                <mxCell id="5greAeXIB-viJ6H0r06e-36" style="edgeStyle=orthogonalEdgeStyle;rounded=0;orthogonalLoop=1;jettySize=auto;html=1;exitX=0.5;exitY=1;exitDx=0;exitDy=0;entryX=0.5;entryY=1;entryDx=0;entryDy=0;strokeWidth=2;dashed=1;" parent="1" source="cIkYoaAPw058XxT0Uyvx-15" target="5greAeXIB-viJ6H0r06e-24" edge="1">
                    <mxGeometry relative="1" as="geometry">
                        <Array as="points">
                            <mxPoint x="615" y="540"/>
                            <mxPoint x="110" y="540"/>
                        </Array>
                    </mxGeometry>
                </mxCell>
                <mxCell id="5greAeXIB-viJ6H0r06e-37" value="反馈，线圈电流" style="edgeLabel;html=1;align=center;verticalAlign=middle;resizable=0;points=[];fontSize=20;" parent="5greAeXIB-viJ6H0r06e-36" vertex="1" connectable="0">
                    <mxGeometry x="0.0012" y="5" relative="1" as="geometry">
                        <mxPoint x="-161.67000000000002" y="-5" as="offset"/>
                    </mxGeometry>
                </mxCell>
                <mxCell id="cIkYoaAPw058XxT0Uyvx-15" value="&lt;font style=&quot;font-size: 15px&quot;&gt;平衡求解器&lt;br&gt;Equilibrium&amp;nbsp; &amp;nbsp;&amp;nbsp;&lt;/font&gt;" style="triangle;whiteSpace=wrap;html=1;rounded=1;sketch=0;shadow=0;fillColor=none;strokeWidth=2;arcSize=32;" parent="1" vertex="1">
                    <mxGeometry x="570" y="260" width="90" height="120" as="geometry"/>
                </mxCell>
                <mxCell id="cIkYoaAPw058XxT0Uyvx-18" value="调用" style="edgeStyle=orthogonalEdgeStyle;rounded=0;orthogonalLoop=1;jettySize=auto;html=1;exitX=0.5;exitY=1;exitDx=0;exitDy=0;endArrow=block;endFill=0;strokeWidth=2;fontSize=20;" parent="1" source="cIkYoaAPw058XxT0Uyvx-17" target="cIkYoaAPw058XxT0Uyvx-15" edge="1">
                    <mxGeometry x="-0.8333" relative="1" as="geometry">
                        <mxPoint as="offset"/>
                    </mxGeometry>
                </mxCell>
                <mxCell id="cIkYoaAPw058XxT0Uyvx-17" value="&lt;font style=&quot;font-size: 24px&quot;&gt;二维平衡求解器&lt;/font&gt;" style="shape=process;whiteSpace=wrap;html=1;backgroundOutline=1;" parent="1" vertex="1">
                    <mxGeometry x="495" y="-120" width="240" height="50" as="geometry"/>
                </mxCell>
                <mxCell id="cIkYoaAPw058XxT0Uyvx-37" style="edgeStyle=orthogonalEdgeStyle;rounded=0;orthogonalLoop=1;jettySize=auto;html=1;exitX=1;exitY=0.5;exitDx=0;exitDy=0;endArrow=block;endFill=0;strokeWidth=4;entryX=0;entryY=0.5;entryDx=0;entryDy=0;fillColor=#fa6800;strokeColor=#C73500;" parent="1" source="cIkYoaAPw058XxT0Uyvx-25" target="5greAeXIB-viJ6H0r06e-4" edge="1">
                    <mxGeometry relative="1" as="geometry">
                        <mxPoint x="1334.6" y="320" as="targetPoint"/>
                    </mxGeometry>
                </mxCell>
                <mxCell id="cIkYoaAPw058XxT0Uyvx-25" value="&lt;font style=&quot;font-size: 16px&quot;&gt;输运求解&amp;nbsp; &amp;nbsp; &amp;nbsp; &amp;nbsp; &amp;nbsp;&lt;br style=&quot;font-size: 16px&quot;&gt;TransportSolver&amp;nbsp; &amp;nbsp; &amp;nbsp;&lt;/font&gt;" style="triangle;whiteSpace=wrap;html=1;rounded=1;sketch=0;shadow=0;strokeWidth=2;fillColor=none;fontSize=16;" parent="1" vertex="1">
                    <mxGeometry x="1190" y="250" width="120" height="140" as="geometry"/>
                </mxCell>
                <mxCell id="cIkYoaAPw058XxT0Uyvx-36" style="edgeStyle=orthogonalEdgeStyle;rounded=0;orthogonalLoop=1;jettySize=auto;html=1;exitX=1;exitY=0.5;exitDx=0;exitDy=0;endArrow=block;endFill=0;strokeWidth=4;entryX=0;entryY=0.5;entryDx=0;entryDy=0;fillColor=#e51400;strokeColor=#B20000;" parent="1" source="cIkYoaAPw058XxT0Uyvx-26" target="cIkYoaAPw058XxT0Uyvx-25" edge="1">
                    <mxGeometry relative="1" as="geometry">
                        <mxPoint x="1050" y="300" as="targetPoint"/>
                        <mxPoint x="830" y="320" as="sourcePoint"/>
                    </mxGeometry>
                </mxCell>
                <mxCell id="cIkYoaAPw058XxT0Uyvx-51" style="edgeStyle=orthogonalEdgeStyle;rounded=0;orthogonalLoop=1;jettySize=auto;html=1;endArrow=block;endFill=1;strokeWidth=4;fontSize=19;entryX=0;entryY=0.5;entryDx=0;entryDy=0;exitX=1;exitY=0.25;exitDx=0;exitDy=0;fillColor=#e51400;strokeColor=#B20000;" parent="1" source="cIkYoaAPw058XxT0Uyvx-26" target="cIkYoaAPw058XxT0Uyvx-48" edge="1">
                    <mxGeometry relative="1" as="geometry">
                        <mxPoint x="790" y="260" as="sourcePoint"/>
                        <mxPoint x="810" y="370" as="targetPoint"/>
                        <Array as="points">
                            <mxPoint x="772" y="220"/>
                        </Array>
                    </mxGeometry>
                </mxCell>
                <mxCell id="cIkYoaAPw058XxT0Uyvx-26" value="磁面&lt;br&gt;平均&lt;br style=&quot;font-size: 15px&quot;&gt;FluxSurface" style="shape=step;perimeter=stepPerimeter;whiteSpace=wrap;html=1;fixedSize=1;rounded=1;shadow=0;sketch=0;fillColor=none;strokeWidth=2;fontSize=15;strokeColor=#EA6B66;" parent="1" vertex="1">
                    <mxGeometry x="680" y="280" width="80" height="80" as="geometry"/>
                </mxCell>
                <mxCell id="cIkYoaAPw058XxT0Uyvx-42" style="edgeStyle=orthogonalEdgeStyle;rounded=0;orthogonalLoop=1;jettySize=auto;html=1;exitX=0.5;exitY=1;exitDx=0;exitDy=0;entryX=0.5;entryY=1;entryDx=0;entryDy=0;endArrow=block;endFill=0;strokeWidth=4;fillColor=#fa6800;strokeColor=#C73500;dashed=1;" parent="1" source="5greAeXIB-viJ6H0r06e-4" target="5greAeXIB-viJ6H0r06e-1" edge="1">
                    <mxGeometry relative="1" as="geometry">
                        <Array as="points">
                            <mxPoint x="1359" y="480"/>
                            <mxPoint x="455" y="480"/>
                        </Array>
                        <mxPoint x="1358.75" y="301.25" as="sourcePoint"/>
                        <mxPoint x="523.75" y="301.25" as="targetPoint"/>
                    </mxGeometry>
                </mxCell>
                <mxCell id="cIkYoaAPw058XxT0Uyvx-45" value="不收敛" style="edgeLabel;html=1;align=center;verticalAlign=middle;resizable=0;points=[];fontSize=19;" parent="cIkYoaAPw058XxT0Uyvx-42" vertex="1" connectable="0">
                    <mxGeometry x="0.1534" y="5" relative="1" as="geometry">
                        <mxPoint x="-60.879999999999995" y="-5" as="offset"/>
                    </mxGeometry>
                </mxCell>
                <mxCell id="cIkYoaAPw058XxT0Uyvx-44" style="edgeStyle=orthogonalEdgeStyle;rounded=0;orthogonalLoop=1;jettySize=auto;html=1;exitX=1;exitY=0.5;exitDx=0;exitDy=0;endArrow=block;endFill=0;strokeWidth=4;entryX=0;entryY=0.5;entryDx=0;entryDy=0;fillColor=#e51400;strokeColor=#B20000;" parent="1" source="5greAeXIB-viJ6H0r06e-4" target="5greAeXIB-viJ6H0r06e-15" edge="1">
                    <mxGeometry relative="1" as="geometry">
                        <mxPoint x="1500" y="320" as="targetPoint"/>
                        <mxPoint x="1377.4999999999905" y="320" as="sourcePoint"/>
                    </mxGeometry>
                </mxCell>
                <mxCell id="cIkYoaAPw058XxT0Uyvx-46" value="收敛" style="edgeLabel;html=1;align=center;verticalAlign=middle;resizable=0;points=[];fontSize=19;" parent="cIkYoaAPw058XxT0Uyvx-44" vertex="1" connectable="0">
                    <mxGeometry x="-0.2272" y="-1" relative="1" as="geometry">
                        <mxPoint x="-31.9" y="-1" as="offset"/>
                    </mxGeometry>
                </mxCell>
                <mxCell id="cIkYoaAPw058XxT0Uyvx-47" value="物理模块&lt;br&gt;Wave，" style="shape=process;whiteSpace=wrap;html=1;backgroundOutline=1;dashed=1;" parent="1" vertex="1">
                    <mxGeometry x="845" y="780" width="120" height="50" as="geometry"/>
                </mxCell>
                <mxCell id="cIkYoaAPw058XxT0Uyvx-53" style="edgeStyle=orthogonalEdgeStyle;rounded=0;orthogonalLoop=1;jettySize=auto;html=1;exitX=1;exitY=0.5;exitDx=0;exitDy=0;entryX=0;entryY=0.25;entryDx=0;entryDy=0;endArrow=block;endFill=0;strokeWidth=2;fontSize=19;" parent="1" source="cIkYoaAPw058XxT0Uyvx-48" target="cIkYoaAPw058XxT0Uyvx-25" edge="1">
                    <mxGeometry relative="1" as="geometry">
                        <Array as="points">
                            <mxPoint x="1060" y="220"/>
                            <mxPoint x="1060" y="285"/>
                        </Array>
                    </mxGeometry>
                </mxCell>
                <mxCell id="cIkYoaAPw058XxT0Uyvx-48" value="源&lt;br&gt;CoreSources" style="shape=dataStorage;whiteSpace=wrap;html=1;fixedSize=1;rounded=1;shadow=0;sketch=0;strokeColor=#000000;strokeWidth=2;fontSize=19;rotation=0;fillColor=none;flipV=1;flipH=1;" parent="1" vertex="1">
                    <mxGeometry x="830" y="180" width="150" height="80" as="geometry"/>
                </mxCell>
                <mxCell id="cIkYoaAPw058XxT0Uyvx-56" style="edgeStyle=orthogonalEdgeStyle;rounded=0;orthogonalLoop=1;jettySize=auto;html=1;exitX=1;exitY=0.5;exitDx=0;exitDy=0;entryX=0;entryY=0.75;entryDx=0;entryDy=0;endArrow=block;endFill=0;strokeWidth=2;fontSize=19;" parent="1" source="cIkYoaAPw058XxT0Uyvx-54" target="cIkYoaAPw058XxT0Uyvx-25" edge="1">
                    <mxGeometry relative="1" as="geometry"/>
                </mxCell>
                <mxCell id="cIkYoaAPw058XxT0Uyvx-54" value="输运系数&lt;br&gt;CoreTransport" style="shape=dataStorage;whiteSpace=wrap;html=1;fixedSize=1;rounded=1;shadow=0;sketch=0;strokeColor=#000000;strokeWidth=2;fontSize=19;rotation=0;fillColor=none;flipV=1;flipH=1;" parent="1" vertex="1">
                    <mxGeometry x="955" y="360" width="170" height="80" as="geometry"/>
                </mxCell>
                <mxCell id="cIkYoaAPw058XxT0Uyvx-57" value="物理模块&lt;br&gt;Gyrokinetic，MHD" style="shape=process;whiteSpace=wrap;html=1;backgroundOutline=1;dashed=1;" parent="1" vertex="1">
                    <mxGeometry x="980" y="780" width="120" height="50" as="geometry"/>
                </mxCell>
                <mxCell id="cIkYoaAPw058XxT0Uyvx-63" style="edgeStyle=orthogonalEdgeStyle;rounded=0;orthogonalLoop=1;jettySize=auto;html=1;endArrow=block;endFill=0;strokeWidth=2;fontSize=20;" parent="1" source="cIkYoaAPw058XxT0Uyvx-58" target="cIkYoaAPw058XxT0Uyvx-25" edge="1">
                    <mxGeometry relative="1" as="geometry"/>
                </mxCell>
                <mxCell id="cIkYoaAPw058XxT0Uyvx-64" value="调用" style="edgeLabel;html=1;align=center;verticalAlign=middle;resizable=0;points=[];fontSize=20;" parent="cIkYoaAPw058XxT0Uyvx-63" vertex="1" connectable="0">
                    <mxGeometry x="-0.2625" y="-2" relative="1" as="geometry">
                        <mxPoint x="2" y="-101.43" as="offset"/>
                    </mxGeometry>
                </mxCell>
                <mxCell id="cIkYoaAPw058XxT0Uyvx-58" value="&lt;font style=&quot;font-size: 24px&quot;&gt;一维输运求解器&lt;/font&gt;" style="shape=process;whiteSpace=wrap;html=1;backgroundOutline=1;fontSize=14;" parent="1" vertex="1">
                    <mxGeometry x="1120" y="-120" width="260" height="50" as="geometry"/>
                </mxCell>
                <mxCell id="cIkYoaAPw058XxT0Uyvx-59" value="调用" style="edgeStyle=orthogonalEdgeStyle;rounded=0;orthogonalLoop=1;jettySize=auto;html=1;exitX=0.5;exitY=0;exitDx=0;exitDy=0;endArrow=block;endFill=0;dashed=1;strokeWidth=2;fontSize=20;entryX=0.5;entryY=1;entryDx=0;entryDy=0;" parent="1" source="cIkYoaAPw058XxT0Uyvx-47" target="cIkYoaAPw058XxT0Uyvx-48" edge="1">
                    <mxGeometry x="-0.8077" relative="1" as="geometry">
                        <mxPoint x="890" y="540" as="sourcePoint"/>
                        <mxPoint x="890" y="320" as="targetPoint"/>
                        <mxPoint as="offset"/>
                        <Array as="points">
                            <mxPoint x="905" y="510"/>
                            <mxPoint x="905" y="510"/>
                        </Array>
                    </mxGeometry>
                </mxCell>
                <mxCell id="cIkYoaAPw058XxT0Uyvx-60" value="调用" style="edgeStyle=orthogonalEdgeStyle;rounded=0;orthogonalLoop=1;jettySize=auto;html=1;exitX=0.5;exitY=0;exitDx=0;exitDy=0;endArrow=block;endFill=0;dashed=1;strokeWidth=2;entryX=0.5;entryY=1;entryDx=0;entryDy=0;fontSize=20;" parent="1" source="cIkYoaAPw058XxT0Uyvx-57" target="cIkYoaAPw058XxT0Uyvx-54" edge="1">
                    <mxGeometry x="-0.7059" relative="1" as="geometry">
                        <mxPoint x="1064.5" y="570" as="sourcePoint"/>
                        <mxPoint x="1064.5" y="260" as="targetPoint"/>
                        <mxPoint as="offset"/>
                    </mxGeometry>
                </mxCell>
                <mxCell id="cIkYoaAPw058XxT0Uyvx-65" value="&lt;font color=&quot;#000066&quot; size=&quot;1&quot;&gt;&lt;span style=&quot;font-size: 40px&quot;&gt;Tokamak Simulator&lt;/span&gt;&lt;/font&gt;" style="text;html=1;fillColor=none;align=center;verticalAlign=middle;whiteSpace=wrap;rounded=1;shadow=0;sketch=0;fontSize=16;fontStyle=3;strokeColor=#FF9933;strokeWidth=5;" parent="1" vertex="1">
                    <mxGeometry x="1100" y="530" width="280" height="60" as="geometry"/>
                </mxCell>
                <mxCell id="cIkYoaAPw058XxT0Uyvx-66" style="edgeStyle=orthogonalEdgeStyle;rounded=0;orthogonalLoop=1;jettySize=auto;html=1;entryX=0;entryY=0.5;entryDx=0;entryDy=0;endArrow=block;endFill=0;strokeWidth=2;" parent="1" target="cIkYoaAPw058XxT0Uyvx-13" edge="1">
                    <mxGeometry relative="1" as="geometry">
                        <mxPoint x="-431" y="280" as="sourcePoint"/>
                        <mxPoint x="-296" y="279.5" as="targetPoint"/>
                    </mxGeometry>
                </mxCell>
                <mxCell id="cIkYoaAPw058XxT0Uyvx-70" value="炮号、时间片" style="edgeLabel;html=1;align=center;verticalAlign=middle;resizable=0;points=[];fontSize=18;" parent="cIkYoaAPw058XxT0Uyvx-66" vertex="1" connectable="0">
                    <mxGeometry x="-0.2364" y="4" relative="1" as="geometry">
                        <mxPoint x="12.35" y="4" as="offset"/>
                    </mxGeometry>
                </mxCell>
                <mxCell id="cIkYoaAPw058XxT0Uyvx-73" style="edgeStyle=orthogonalEdgeStyle;rounded=0;orthogonalLoop=1;jettySize=auto;html=1;exitX=1;exitY=0.5;exitDx=0;exitDy=0;entryX=0;entryY=0.75;entryDx=0;entryDy=0;startArrow=none;startFill=0;endArrow=block;endFill=0;strokeWidth=2;fontSize=18;fontColor=#7EA6E0;jumpStyle=arc;dashed=1;" parent="1" source="5greAeXIB-viJ6H0r06e-24" target="cIkYoaAPw058XxT0Uyvx-15" edge="1">
                    <mxGeometry relative="1" as="geometry">
                        <mxPoint x="310" y="500" as="sourcePoint"/>
                        <Array as="points">
                            <mxPoint x="380" y="460"/>
                            <mxPoint x="380" y="350"/>
                        </Array>
                        <mxPoint x="325" y="390" as="targetPoint"/>
                    </mxGeometry>
                </mxCell>
                <mxCell id="cIkYoaAPw058XxT0Uyvx-75" value="&lt;font style=&quot;font-size: 21px&quot; color=&quot;#000000&quot;&gt;控制、约束&lt;/font&gt;" style="edgeLabel;html=1;align=center;verticalAlign=middle;resizable=0;points=[];fontSize=18;fontColor=#7EA6E0;" parent="cIkYoaAPw058XxT0Uyvx-73" vertex="1" connectable="0">
                    <mxGeometry x="-0.369" y="-1" relative="1" as="geometry">
                        <mxPoint x="-56.67" y="-1" as="offset"/>
                    </mxGeometry>
                </mxCell>
                <mxCell id="cIkYoaAPw058XxT0Uyvx-74" value="&lt;span style=&quot;color: rgb(0 , 0 , 0) ; font-size: 22px&quot;&gt;Pulse Schedule&lt;/span&gt;" style="shape=umlActor;verticalLabelPosition=bottom;verticalAlign=top;html=1;outlineConnect=0;rounded=1;shadow=0;sketch=0;strokeWidth=7;fillColor=none;fontSize=18;fontColor=#7EA6E0;strokeColor=#FFB570;" parent="1" vertex="1">
                    <mxGeometry x="-120" y="420" width="70" height="120" as="geometry"/>
                </mxCell>
                <mxCell id="5greAeXIB-viJ6H0r06e-27" style="edgeStyle=orthogonalEdgeStyle;rounded=0;orthogonalLoop=1;jettySize=auto;html=1;exitX=1;exitY=0.5;exitDx=0;exitDy=0;entryX=0;entryY=0.25;entryDx=0;entryDy=0;strokeWidth=4;fillColor=#fa6800;strokeColor=#C73500;" parent="1" source="5greAeXIB-viJ6H0r06e-1" target="cIkYoaAPw058XxT0Uyvx-15" edge="1">
                    <mxGeometry relative="1" as="geometry"/>
                </mxCell>
                <mxCell id="5greAeXIB-viJ6H0r06e-28" value="&lt;font style=&quot;font-size: 18px&quot;&gt;Profiles&lt;/font&gt;" style="edgeLabel;html=1;align=center;verticalAlign=middle;resizable=0;points=[];" parent="5greAeXIB-viJ6H0r06e-27" vertex="1" connectable="0">
                    <mxGeometry x="-0.2441" relative="1" as="geometry">
                        <mxPoint x="6" y="-15" as="offset"/>
                    </mxGeometry>
                </mxCell>
                <mxCell id="5greAeXIB-viJ6H0r06e-1" value="" style="shape=orEllipse;perimeter=ellipsePerimeter;whiteSpace=wrap;html=1;backgroundOutline=1;strokeColor=#B20000;fontColor=#ffffff;fillColor=none;" parent="1" vertex="1">
                    <mxGeometry x="440" y="275" width="30" height="30" as="geometry"/>
                </mxCell>
                <mxCell id="5greAeXIB-viJ6H0r06e-4" value="" style="shape=orEllipse;perimeter=ellipsePerimeter;whiteSpace=wrap;html=1;backgroundOutline=1;strokeColor=#B20000;fontColor=#ffffff;fillColor=none;" parent="1" vertex="1">
                    <mxGeometry x="1343.75" y="305" width="30" height="30" as="geometry"/>
                </mxCell>
                <mxCell id="5greAeXIB-viJ6H0r06e-19" value="" style="edgeStyle=orthogonalEdgeStyle;rounded=0;orthogonalLoop=1;jettySize=auto;html=1;strokeWidth=2;entryX=0;entryY=0.5;entryDx=0;entryDy=0;entryPerimeter=0;" parent="1" source="5greAeXIB-viJ6H0r06e-15" target="L_pBXImfrmdXrkmZ3-33-8" edge="1">
                    <mxGeometry relative="1" as="geometry">
                        <mxPoint x="1620" y="320" as="targetPoint"/>
                    </mxGeometry>
                </mxCell>
                <mxCell id="L_pBXImfrmdXrkmZ3-33-7" style="edgeStyle=orthogonalEdgeStyle;rounded=0;orthogonalLoop=1;jettySize=auto;html=1;exitX=0.5;exitY=0;exitDx=0;exitDy=0;entryX=0;entryY=0.5;entryDx=0;entryDy=0;fillColor=#e51400;strokeColor=#B20000;strokeWidth=4;dashed=1;" parent="1" source="5greAeXIB-viJ6H0r06e-15" target="L_pBXImfrmdXrkmZ3-33-3" edge="1">
                    <mxGeometry relative="1" as="geometry"/>
                </mxCell>
                <mxCell id="5greAeXIB-viJ6H0r06e-15" value="" style="ellipse;fillColor=#e51400;fontColor=#ffffff;strokeColor=none;" parent="1" vertex="1">
                    <mxGeometry x="1520" y="310" width="20" height="20" as="geometry"/>
                </mxCell>
                <mxCell id="5greAeXIB-viJ6H0r06e-23" style="edgeStyle=orthogonalEdgeStyle;rounded=0;orthogonalLoop=1;jettySize=auto;html=1;exitX=1;exitY=0.3333333333333333;exitDx=0;exitDy=0;strokeWidth=2;entryX=0;entryY=0.5;entryDx=0;entryDy=0;exitPerimeter=0;dashed=1;" parent="1" source="cIkYoaAPw058XxT0Uyvx-74" target="5greAeXIB-viJ6H0r06e-24" edge="1">
                    <mxGeometry relative="1" as="geometry">
                        <mxPoint x="230" y="560" as="targetPoint"/>
                        <mxPoint x="70" y="440" as="sourcePoint"/>
                    </mxGeometry>
                </mxCell>
                <mxCell id="5greAeXIB-viJ6H0r06e-30" style="edgeStyle=orthogonalEdgeStyle;rounded=0;orthogonalLoop=1;jettySize=auto;html=1;exitX=1;exitY=0.25;exitDx=0;exitDy=0;entryX=0;entryY=0.5;entryDx=0;entryDy=0;strokeWidth=2;dashed=1;" parent="1" source="5greAeXIB-viJ6H0r06e-24" target="5greAeXIB-viJ6H0r06e-29" edge="1">
                    <mxGeometry relative="1" as="geometry">
                        <Array as="points">
                            <mxPoint x="180" y="443"/>
                            <mxPoint x="180" y="320"/>
                        </Array>
                    </mxGeometry>
                </mxCell>
                <mxCell id="5greAeXIB-viJ6H0r06e-34" style="edgeStyle=orthogonalEdgeStyle;rounded=0;orthogonalLoop=1;jettySize=auto;html=1;exitX=1;exitY=0.75;exitDx=0;exitDy=0;entryX=0;entryY=0.5;entryDx=0;entryDy=0;strokeWidth=2;dashed=1;" parent="1" source="5greAeXIB-viJ6H0r06e-24" target="5greAeXIB-viJ6H0r06e-32" edge="1">
                    <mxGeometry relative="1" as="geometry">
                        <Array as="points">
                            <mxPoint x="180" y="477"/>
                            <mxPoint x="180" y="640"/>
                        </Array>
                    </mxGeometry>
                </mxCell>
                <mxCell id="5greAeXIB-viJ6H0r06e-24" value="&lt;font style=&quot;font-size: 24px&quot;&gt;Control&lt;/font&gt;" style="shape=hexagon;perimeter=hexagonPerimeter2;whiteSpace=wrap;html=1;fixedSize=1;dashed=1;" parent="1" vertex="1">
                    <mxGeometry x="50" y="420" width="120" height="80" as="geometry"/>
                </mxCell>
                <mxCell id="5greAeXIB-viJ6H0r06e-31" style="edgeStyle=orthogonalEdgeStyle;rounded=0;orthogonalLoop=1;jettySize=auto;html=1;exitX=1;exitY=0.5;exitDx=0;exitDy=0;entryX=0;entryY=0.5;entryDx=0;entryDy=0;strokeWidth=2;jumpStyle=arc;" parent="1" source="5greAeXIB-viJ6H0r06e-29" target="cIkYoaAPw058XxT0Uyvx-15" edge="1">
                    <mxGeometry relative="1" as="geometry"/>
                </mxCell>
                <mxCell id="5greAeXIB-viJ6H0r06e-29" value="&lt;font style=&quot;font-size: 16px&quot;&gt;磁场线圈&lt;/font&gt;" style="shape=hexagon;perimeter=hexagonPerimeter2;whiteSpace=wrap;html=1;fixedSize=1;" parent="1" vertex="1">
                    <mxGeometry x="230" y="300" width="90" height="40" as="geometry"/>
                </mxCell>
                <mxCell id="L_pBXImfrmdXrkmZ3-33-20" style="edgeStyle=orthogonalEdgeStyle;rounded=0;orthogonalLoop=1;jettySize=auto;html=1;exitX=1;exitY=0.5;exitDx=0;exitDy=0;entryX=0;entryY=0.75;entryDx=0;entryDy=0;endArrow=block;endFill=1;strokeColor=#000000;strokeWidth=2;jumpStyle=arc;dashed=1;" parent="1" source="5greAeXIB-viJ6H0r06e-32" target="cIkYoaAPw058XxT0Uyvx-48" edge="1">
                    <mxGeometry relative="1" as="geometry">
                        <Array as="points">
                            <mxPoint x="810" y="640"/>
                            <mxPoint x="810" y="240"/>
                        </Array>
                    </mxGeometry>
                </mxCell>
                <mxCell id="5greAeXIB-viJ6H0r06e-32" value="&lt;font style=&quot;font-size: 16px&quot;&gt;辅助系统&lt;br&gt;RF，NBI。。。&lt;/font&gt;" style="shape=hexagon;perimeter=hexagonPerimeter2;whiteSpace=wrap;html=1;fixedSize=1;" parent="1" vertex="1">
                    <mxGeometry x="400" y="620" width="170" height="40" as="geometry"/>
                </mxCell>
                <mxCell id="L_pBXImfrmdXrkmZ3-33-3" value="&lt;font color=&quot;#cc0000&quot; size=&quot;1&quot;&gt;&lt;b style=&quot;font-size: 26px&quot;&gt;t=t+1&lt;/b&gt;&lt;/font&gt;" style="triangle;whiteSpace=wrap;html=1;direction=north;strokeColor=#B20000;fontColor=#ffffff;fillColor=none;" parent="1" vertex="1">
                    <mxGeometry x="1490" y="150" width="80" height="60" as="geometry"/>
                </mxCell>
                <mxCell id="L_pBXImfrmdXrkmZ3-33-5" style="edgeStyle=orthogonalEdgeStyle;rounded=0;orthogonalLoop=1;jettySize=auto;html=1;exitX=1;exitY=0.5;exitDx=0;exitDy=0;strokeWidth=4;entryX=0.5;entryY=0;entryDx=0;entryDy=0;jumpStyle=arc;fillColor=#fa6800;strokeColor=#C73500;dashed=1;" parent="1" source="L_pBXImfrmdXrkmZ3-33-3" target="5greAeXIB-viJ6H0r06e-24" edge="1">
                    <mxGeometry relative="1" as="geometry">
                        <mxPoint x="110" y="340" as="targetPoint"/>
                        <Array as="points">
                            <mxPoint x="1530" y="80"/>
                            <mxPoint x="110" y="80"/>
                        </Array>
                        <mxPoint x="1530" y="310" as="sourcePoint"/>
                    </mxGeometry>
                </mxCell>
                <mxCell id="L_pBXImfrmdXrkmZ3-33-8" value="&lt;font style=&quot;font-size: 19px&quot;&gt;模拟数据库&lt;/font&gt;" style="ellipse;shape=cloud;whiteSpace=wrap;html=1;fontFamily=Helvetica;fontSize=12;fontColor=#000000;align=center;strokeColor=#000000;" parent="1" vertex="1">
                    <mxGeometry x="1630" y="260" width="160" height="120" as="geometry"/>
                </mxCell>
                <mxCell id="L_pBXImfrmdXrkmZ3-33-9" value="实验数据库&lt;br&gt;EAST" style="ellipse;shape=cloud;whiteSpace=wrap;html=1;fillColor=none;" parent="1" vertex="1">
                    <mxGeometry x="-110" y="-10" width="120" height="80" as="geometry"/>
                </mxCell>
                <mxCell id="L_pBXImfrmdXrkmZ3-33-16" style="edgeStyle=orthogonalEdgeStyle;rounded=0;orthogonalLoop=1;jettySize=auto;html=1;exitX=1;exitY=0.5;exitDx=0;exitDy=0;entryX=0.5;entryY=0;entryDx=0;entryDy=0;strokeWidth=4;fillColor=#e51400;strokeColor=#B20000;dashed=1;" parent="1" source="L_pBXImfrmdXrkmZ3-33-15" target="5greAeXIB-viJ6H0r06e-1" edge="1">
                    <mxGeometry relative="1" as="geometry"/>
                </mxCell>
                <mxCell id="L_pBXImfrmdXrkmZ3-33-15" value="&lt;font style=&quot;font-size: 16px&quot;&gt;诊断数据处理&lt;/font&gt;" style="shape=hexagon;perimeter=hexagonPerimeter2;whiteSpace=wrap;html=1;fixedSize=1;" parent="1" vertex="1">
                    <mxGeometry x="205" y="160" width="140" height="40" as="geometry"/>
                </mxCell>
                <mxCell id="L_pBXImfrmdXrkmZ3-33-19" value="Scenario" style="text;rounded=1;shadow=0;strokeColor=#FF9933;html=1;fontSize=40;verticalAlign=middle;fontStyle=3;strokeWidth=5;" parent="1" vertex="1">
                    <mxGeometry x="1275" y="730" width="210" height="60" as="geometry"/>
                </mxCell>
            </root>
        </mxGraphModel>
    </diagram>
</mxfile>